<?xml version="1.0" encoding="utf-8"?>
<!-- Generator: Adobe Illustrator 27.3.1, SVG Export Plug-In . SVG Version: 6.00 Build 0)  -->
<svg version="1.1" id="Layer_1" xmlns="http://www.w3.org/2000/svg" xmlns:xlink="http://www.w3.org/1999/xlink" x="0px" y="0px"
	 viewBox="0 0 595.28 841.89" style="enable-background:new 0 0 595.28 841.89;" xml:space="preserve">
<style type="text/css">
	.st0{fill:#FFFFFF;}
	.st1{fill:#010101;}
	.st2{fill:#F15728;stroke:#000000;stroke-width:0.75;stroke-miterlimit:10;}
	.st3{font-family:'MyriadPro-Regular';}
	.st4{font-size:93.3918px;}
	.st5{letter-spacing:2.28;}
	.st6{fill:#3B7593;stroke:#000000;stroke-miterlimit:10;}
	.st7{font-size:93.2383px;}
	.st8{letter-spacing:1.67;}
	.st9{fill:#DD4326;}
	.st10{opacity:0.78;}
	.st11{fill:#DCB0B5;}
	.st12{fill:#FCB315;}
	.st13{fill:#F7921E;}
	.st14{fill:#F4D63B;}
	.st15{fill:none;}
	.st16{font-size:47.4268px;}
	.st17{letter-spacing:1.05;}
</style>
<g>
	<g>
		<polygon class="st0" points="91.26,302.64 150.96,299.41 155.72,404.39 91.26,406.01 		"/>
		<g>
			<g id="C_-_64_x2C__Appliances_x2C__gas_x2C__kitchen_x2C__oven">
				<g>
					<path class="st1" d="M141.01,318.35H98.92c-2.65,0-4.83,2.85-4.83,6.29v69.81c0,3.45,2.18,6.29,4.83,6.29h42.08
						c2.64,0,4.83-2.85,4.83-6.29v-69.81C145.84,321.19,143.65,318.35,141.01,318.35z M96.97,340.82h45.99v39.4H96.97V340.82z
						 M98.92,322.09h42.08c1.03,0,1.95,1.2,1.95,2.55v12.43H96.97v-12.43C96.97,323.29,97.89,322.09,98.92,322.09z M141.01,397
						H98.92c-1.04,0-1.95-1.2-1.95-2.55v-10.49h45.99v10.49C142.96,395.8,142.04,397,141.01,397z"/>
					<path class="st1" d="M99.84,314.6h12.99c0.81,0,1.49-0.9,1.49-1.95c0-1.05-0.69-1.95-1.49-1.95H99.84
						c-0.81,0-1.49,0.9-1.49,1.95C98.35,313.7,99.04,314.6,99.84,314.6z"/>
					<path class="st1" d="M127.21,314.6h12.88c0.81,0,1.49-0.9,1.49-1.95c0-1.05-0.69-1.95-1.49-1.95h-12.88
						c-0.8,0-1.49,0.9-1.49,1.95C125.71,313.7,126.4,314.6,127.21,314.6z"/>
					<path class="st1" d="M102.72,331.53h4.37c0.81,0,1.49-0.9,1.49-1.95c0-1.05-0.69-1.95-1.49-1.95h-4.37
						c-0.81,0-1.49,0.9-1.49,1.95C101.34,330.63,101.91,331.53,102.72,331.53z"/>
					<path class="st1" d="M112.84,331.53h4.25c0.81,0,1.49-0.9,1.49-1.95c0-1.05-0.69-1.95-1.49-1.95h-4.37
						c-0.81,0-1.49,0.9-1.49,1.95C111.34,330.63,112.03,331.53,112.84,331.53z"/>
					<path class="st1" d="M122.84,331.53h4.37c0.81,0,1.49-0.9,1.49-1.95c0-1.05-0.69-1.95-1.49-1.95h-4.37
						c-0.81,0-1.49,0.9-1.49,1.95C121.46,330.63,122.03,331.53,122.84,331.53z"/>
					<path class="st1" d="M132.96,331.53h4.37c0.81,0,1.5-0.9,1.5-1.95c0-1.05-0.69-1.95-1.5-1.95h-4.37c-0.8,0-1.49,0.9-1.49,1.95
						C131.46,330.63,132.15,331.53,132.96,331.53z"/>
				</g>
			</g>
			<g id="Layer_1_00000157274486426516711210000008250770685612102317_">
			</g>
		</g>
	</g>
</g>
<text transform="matrix(1.3144 0 0 1 134.7822 295.9321)" class="st2 st3 st4 st5">KITCHEN</text>
<text transform="matrix(1.1948 0 0 1 313.4766 375.9653)" class="st6 st3 st7 st8">PLUS</text>
<g>
	<g>
		<polygon class="st0" points="6.66,253.04 90.57,256.26 92.9,414.08 2,407.63 		"/>
		<g>
			<g id="C_-_70_x2C__Appliances_x2C__fridge_x2C__furniture_x2C__home_x2C__household">
				<g>
					<path class="st1" d="M76.96,260.54H22.2c-4.38,0-7.85,4.5-7.85,10.18v121.39c0,5.68,3.47,10.18,7.85,10.18h54.95
						c4.38,0,7.85-4.5,7.85-10.18V270.71C84.99,265.03,81.34,260.54,76.96,260.54z M22.2,266.45h54.95c1.83,0,3.29,1.89,3.29,4.26
						v28.16h-61.7v-28.16C18.73,268.35,20.19,266.45,22.2,266.45z M76.96,396.6H22.2c-1.83,0-3.29-1.89-3.29-4.26v-87.32h61.7v87.32
						C80.43,394.71,78.97,396.6,76.96,396.6z"/>
					<path class="st1" d="M71.3,293.19c1.28,0,2.37-1.42,2.37-3.08v-8.99c0-1.66-1.1-3.08-2.37-3.08c-1.28,0-2.37,1.42-2.37,3.08
						v8.99C68.93,291.77,70.03,293.19,71.3,293.19z"/>
					<path class="st1" d="M71.3,325.61c-1.28,0-2.37,1.42-2.37,3.08v26.74c0,1.66,1.1,3.08,2.37,3.08c1.28,0,2.37-1.42,2.37-3.08
						v-26.74C73.49,327.03,72.58,325.61,71.3,325.61z"/>
				</g>
			</g>
			<g id="Layer_1_00000112630497436873958740000000647669002935845771_">
			</g>
		</g>
	</g>
</g>
<g>
	<g>
		<path class="st9" d="M290.57,349.89c5.42,5.29,8.6,11.39,8.81,17.97c0.68,21.49-30.53,39.77-69.71,40.84
			c-39.18,1.07-71.49-15.49-72.17-36.97c-0.23-7.3,3.23-14.23,9.42-20.24c-11.06,8.23-17.54,18.6-17.2,29.7
			c0.78,25.27,36.63,44.79,80.08,43.59c43.45-1.2,78.04-22.65,77.26-47.92C306.74,366.57,300.63,357.25,290.57,349.89z"/>
	</g>
	<g class="st10">
		<path class="st11" d="M295.78,356.32c2.21,3.61,3.47,7.48,3.6,11.53c0.68,21.49-30.53,39.77-69.71,40.84
			c-1.19,0.03-2.37,0.05-3.55,0.05c0,0,0-0.01-0.01-0.01c-11.17,0-21.7-1.42-31.01-3.98c0,0,0,0,0,0
			c-21.99-6.05-37.14-18.39-37.6-33.02c-0.03-0.88,0-1.75,0.08-2.62c-0.61,2.38-6.54,30.91,41.32,43.31
			c1.07,2.97,1.37,7.22,2.57,10.08c8.83,1.72,18.37,2.55,28.33,2.27c1.9-0.05,3.77-0.16,5.63-0.29c-0.4-0.48-0.8-0.94-1.19-1.44
			c-1.5-1.92-2.8-4.08-4.02-6.33c33.84-2.23,60.57-18.8,67.78-31.41C306.79,369.9,297.21,357.9,295.78,356.32z"/>
	</g>
	<g>
		<path class="st12" d="M266.01,442.27c-18.4,10.13-43.74-13.89-56.61-53.64c-12.87-39.75-8.38-80.19,10.02-90.32
			c6.41-3.53,14.42,1.08,19.19,4.81c1.43,1.12,4.22-0.58,6.21-0.42c-12.25-12.63-25.67-17.44-36.9-11.27
			c-20.88,11.5-26.21,56.67-11.89,100.9c14.31,44.23,42.85,70.76,63.73,59.27c5.42-2.99,9.79-8.26,13.04-15.18
			C270.81,438.89,268.55,440.88,266.01,442.27z"/>
	</g>
	<g>
		<path class="st13" d="M244.82,302.7c-1.15-1.19-2.32-2.29-3.49-3.34c-5.3-1.86-10.2-2.99-15.43-2.23
			c4.72,0.51,9.47,3.45,12.71,5.98C240.04,304.24,242.84,302.54,244.82,302.7z"/>
	</g>
	<g>
		<path class="st13" d="M259.76,451.61c5.42-2.99,9.79-8.26,13.04-15.18c-2,2.46-4.26,4.45-6.79,5.84
			c-10.55,5.81-23.38,0.36-34.83-12.82C236.56,443.39,256,453.68,259.76,451.61z"/>
	</g>
	<g>
		<polygon class="st9" points="226.56,303.12 244.73,293.83 248.91,310.76 		"/>
	</g>
	<g>
		<polygon class="st13" points="226.56,303.12 244.73,293.83 248.91,310.76 		"/>
	</g>
	<g>
		<g>
			<path class="st14" d="M274.83,323.59h-49.9c-6.92,0-12.53,5.61-12.53,12.53v29.35c0,6.92,5.61,12.53,12.53,12.53h49.9
				c6.92,0,12.53-5.61,12.53-12.53v-29.35C287.35,329.2,281.75,323.59,274.83,323.59z"/>
		</g>
		<g>
			<path class="st15" d="M274.83,326.2h-49.9c-6.92,0-12.53,5.61-12.53,12.53v29.35c0,6.92,5.61,12.53,12.53,12.53h49.9
				c6.92,0,12.53-5.61,12.53-12.53v-29.35C287.35,331.81,281.75,326.2,274.83,326.2z"/>
		</g>
	</g>
</g>
<text transform="matrix(0.9503 0 0 1 213.0098 366.0405)" class="st3 st16 st17">360</text>
<g>
	<g transform="translate(0.000000,100.000000) scale(0.100000,-0.100000)">
		<path class="st1" d="M1117.34-1402.59c-1.86-2.61-3.25-36.49-3.25-74.94v-70.38l-60.77-73.64c-32.93-40.4-65.87-75.59-72.83-78.2
			c-19.48-7.82-24.12-22.16-24.12-78.2v-50.83h231.93h231.93v52.13c0,43.66-1.39,54.09-9.28,65.16c-5.1,7.17-12.52,13.03-16.7,13.03
			s-35.25,33.89-69.58,74.94l-61.69,74.94l-1.39,73.64c-0.93,59.95-2.78,72.98-8.35,72.98s-7.42-13.03-8.35-69.73l-1.39-70.38h-55.2
			h-55.2l-1.39,69.73C1130.33-1408.46,1126.62-1389.56,1117.34-1402.59z M1303.35-1631.97l52.88-63.21l-83.96-1.95
			c-46.39-0.65-121.53-0.65-167.46,0l-83.5,1.95l52.42,63.21l51.95,63.21h62.62h62.62L1303.35-1631.97z M1400.76-1764.91l1.39-37.8
			h-213.84H974.93v34.54c0,19.55,1.39,37.14,3.25,39.1c1.39,2.61,96.95,3.91,211.99,3.26l209.2-1.95L1400.76-1764.91z"/>
		<path class="st1" d="M1079.3-1874.38c-1.39-3.91-0.46-16.94,2.32-29.98c4.17-18.25,4.17-29.98,0-51.48
			c-6.49-31.28-3.71-65.82,6.49-85.37c5.1-9.12,7.89-10.43,12.06-4.56c4.17,5.21,4.17,13.03,0,30.63
			c-4.17,18.9-4.17,30.63,0.46,56.69c5.1,27.37,5.1,37.14-0.46,59.3C1093.22-1871.77,1084.87-1861.35,1079.3-1874.38z"/>
		<path class="st1" d="M1144.25-1874.38c-1.39-3.91-0.46-16.94,2.32-29.98c4.17-18.25,4.17-29.98,0-51.48
			c-6.49-31.28-3.71-65.82,6.49-85.37c5.1-9.12,7.89-10.43,12.06-4.56c4.17,5.21,4.17,13.03,0,30.63
			c-4.17,18.9-4.17,30.63,0.46,56.69c5.1,27.37,5.1,37.14-0.46,59.3C1158.16-1871.77,1149.81-1861.35,1144.25-1874.38z"/>
		<path class="st1" d="M1209.19-1874.38c-1.39-3.91-0.46-16.94,2.32-29.98c4.17-18.25,4.17-29.98,0-51.48
			c-6.49-31.28-3.71-65.82,6.49-85.37c5.1-9.12,7.89-10.43,12.06-4.56c4.17,5.21,4.17,13.03,0,30.63
			c-4.17,18.9-4.17,30.63,0.46,56.69c5.1,27.37,5.1,37.14-0.46,59.3C1223.1-1871.77,1214.75-1861.35,1209.19-1874.38z"/>
		<path class="st1" d="M1274.13-1874.38c-1.39-3.91-0.46-16.94,2.32-29.98c4.17-18.25,4.17-29.98,0-51.48
			c-6.49-31.28-3.71-65.82,6.49-85.37c5.1-9.12,7.89-10.43,12.06-4.56c4.17,5.21,4.17,13.03,0,30.63
			c-4.17,18.9-4.17,30.63,0.46,56.69c5.1,27.37,5.1,37.14-0.46,59.3C1288.04-1871.77,1279.69-1861.35,1274.13-1874.38z"/>
	</g>
</g>
</svg>
