<svg width="91" height="70" viewBox="0 0 91 70" fill="none" xmlns="http://www.w3.org/2000/svg">
<path d="M0 0H67C80.2548 0 91 10.7452 91 24V46C91 59.2548 80.2548 70 67 70H0V0Z" fill="#0B13D1"/>
<path d="M60.621 52L48.3898 38.6237C47.4132 39.5337 46.2901 40.2379 45.0204 40.7363C43.7508 41.2348 42.4747 41.484 41.1921 41.484C38.0643 41.484 35.417 40.2999 33.2502 37.9316C31.0834 35.5634 30 32.669 30 29.2484C30 25.8278 31.0821 22.932 33.2463 20.5609C35.4105 18.1898 38.0565 17.0029 41.1843 17C44.3121 16.9972 46.9607 18.182 49.1301 20.5545C51.2995 22.927 52.3842 25.8228 52.3842 29.242C52.3842 30.7259 52.1439 32.162 51.6634 33.5505C51.1829 34.939 50.5514 36.1266 49.7688 37.1135L62 50.4876L60.621 52ZM41.194 39.3457C43.7853 39.3457 45.973 38.3703 47.7569 36.4193C49.5409 34.4683 50.4329 32.0752 50.4329 29.2399C50.4329 26.4045 49.5409 24.0121 47.7569 22.0626C45.973 20.113 43.7853 19.1375 41.194 19.1361C38.6027 19.1347 36.4145 20.1102 34.6292 22.0626C32.8439 24.015 31.9519 26.4074 31.9532 29.2399C31.9545 32.0723 32.8465 34.4648 34.6292 36.4172C36.4118 38.3695 38.5995 39.345 41.1921 39.3436" fill="#0D0707"/>
</svg>
